<mxfile host="app.diagrams.net" modified="2021-05-05T11:24:37.639Z" agent="5.0 (Macintosh; Intel Mac OS X 10_15_7) AppleWebKit/537.36 (KHTML, like Gecko) Chrome/90.0.4430.93 Safari/537.36" etag="qonRIs2bABJwUt5U60DS" version="14.6.10" type="github">
  <diagram id="JpPtCSefKxvmD0gb3pPT" name="Page-1">
    <mxGraphModel dx="946" dy="557" grid="1" gridSize="10" guides="1" tooltips="1" connect="1" arrows="1" fold="1" page="1" pageScale="1" pageWidth="850" pageHeight="1100" math="0" shadow="0">
      <root>
        <mxCell id="0" />
        <mxCell id="1" parent="0" />
        <mxCell id="wAkoyKm10XSTB36XZKbG-27" value="" style="rounded=1;whiteSpace=wrap;html=1;" vertex="1" parent="1">
          <mxGeometry x="140" y="120" width="590" height="180" as="geometry" />
        </mxCell>
        <mxCell id="wAkoyKm10XSTB36XZKbG-1" value="" style="shape=image;verticalLabelPosition=bottom;labelBackgroundColor=#ffffff;verticalAlign=top;aspect=fixed;imageAspect=0;image=data:image/png,iVBORw0KGgoAAAANSUhEUgAAAcwAAAHMCAIAAADXuQ/RAAAy00lEQVR4nOzdB3RUZd4/8FumZyaT3kghhBQQ9UURBAERLCAIFlb2FRF1VYr8FZQFXbFgR1RERVndF5FdmrCUVUGQRZpGFBAEQgkhvUOSmUwv9/5PMhpDSMLM5D5z5w7fz+Fwksnc5/6STL5zy1NkBygAACCFEbsAAIBQhpAFACAIIQsAQBBCFgCAIIQsAABBCFkAAIIQsgAABCFkAQAIQsgCABCEkAUAIAghCwBAEEIWAIAghCwAAEEIWQAAghCyAAAEIWQBAAhCyAIAEISQBQAgCCELAEAQQhYAgCCELAAAQQhZAACCELIAAAQhZAEACELIAgAQhJAFACAIIQsAQBBCFgCAIIQsAABBCFkAAIIQsgAABCFkAQAIQsgCABCEkAUAIAghCwBAEEIWAIAghCwAAEEIWQAAghCyAAAEIWQBAAhCyAIAEISQBQAgCCELAEAQQhYAgCCELAAAQQhZAACCELIAAAQhZAEACELIAgAQhJAFACAIIQsAQBBCFgCAIIQsAABBCFkAAIIQsgAABCFkAQAIQsgCABCEkAUAIAghCwBAEEIWAIAghCwAAEEIWQAAghCyAAAEIWQBAAhCyAIAEISQBQAgCCELAEAQQhYAgCCELAAAQQhZAACCELIAAAQhZAEACELIAgAQhJAFACAIIQsAQBBCFgCAIIQsAABBCFkAAIIQsgAABCFkAQAIQsgCABCEkAUAIAghCwBAEEIWAIAghCwAAEEIWQAAghCyAAAEIWQBAAhCyAIAEISQBQAgCCELAEAQQhYAgCCELAAAQQhZAACCELIAAAQhZAEACELIAgAQhJAFACAIIQsAQBBCFgCAIIQsAABBCFkAAIIQsgAABCFkAQAIQsgCABCEkAUAIAghCwBAEEIWAIAghCwAAEEIWQAAghCyAAAEIWQBAAhCyAIAEISQBQAgCCELAEAQQhYAgCCELAAAQQhZAACCELIAAAQhZAEACELIAgAQhJAFACAIIQsAQBBCFgCAIIQsAABBCFkAAIIQsgAABCFkAQAIQsgCABCEkAUAIAghCwBAEEIWAIAghCwAAEEIWQAAgmRiFwCXIEtMzNq+nVYqvd/EuGNHyfTpNMmqAMBLCNlg56yqouVyVWam95twJhPNMBTHkawLALyCywVBj+etJ074tIU8IYFWqYgVBAA+QMgGO5qibMeO+bQJo9fLIiOJVQQAPkDISoA1L8+n57MqlSwhgVg5AOADhKwEWA4coNxuHzZgGFWPHgQLAgCvIWS7hA/IXuxFRbbCQp82UebkECsHAHyAkPUfrdEkzZ+vuvJK0jvinU7z/v0+baLs3j0wbwAA0DmErD9ohSJywoRe+/cnvfBCj7VrZYmJZHdHUY07d/q0iSI1lVg5AOADhKyPWDZ81Kis3bt7rFql7tOHoih1r17pK1cyWi3R3Zp++IF3Or1/vjwxkWYI/nJppTJs0CCKxogHgEugD4hdgVTwFKXKyUl9//3w4cMplm3z1fOff1786KM+5aBPaIWi188/K7y+neU6f/54Tg5vsxGqhw0P71NQUL9uXdkzz3BGI6G9AIQAhKwXFArtDTdET5wY+ac/seHhHT2rbvXqkmnT3AYDoSoYjebicO8Qz3MmE6FKPCF7ZWkpGx5uOXq0cv58w1df8XY7ud0BSBdCtlNyecTYsYnz5mmuvtqbU2Pjjh1nxowRMW7a3OwidzLfErKeTy0HD5bOnGnat4/YDgGkCiHbIXlyco81a7QDB1K+XNwsmTGjdskSclXxFEXTNBMWJouPl8XEyCIjZbGxsshINiKC1elopZKWyyma5t1u3uHgLBbOZHIbje6GBmdVlbO62nXuHGc0cnY739zx1u8UbhOyFEVxNlvtxx9XvvKKu75eqG8WIAQgZDvEhIfnfP+95+6W95zV1Sf793eUlAhVBk9RrEajzMpSZWer+/RR5uQo09IUaWmsXs8oFD7deuJdLt5udxuNzupqZ1mZ5ehRy6FD9oICR3Gx22Dg3W7v27o4ZD1sp08X3nef+eBB3BED8EDIdkZ91VVZO3fKoqN92sqUm5s/ahTXhYuzPEXJwsOVV1yhGzgwbNCgsOuuU3Tr5sMFWZ+43e7GRnthofX48cZdu0x79zpKSjibrfOU7Chkm95mamtLpk1r2LgR04ABIGQvLXL8+PSVK2mFwqet6r74omjSJN7h8GmrpmyNigobMCDqf/83/JZb5HFxPl2pEATncDjLyy2HD5t27TL98IP16FHObm8ncBkmdsqUhLlzFWlpF3+Rd7vr168vnzPHXlKCQ1q4zCFkLy3qvvtSly5ldTqftqp5//3SmTMp/hIDr3iKksfF6YYP1w4cGHb99aqcnE46MAQaxzkqKiwHD1qOHLH88ov18GFHaWnLLAo8RbFabdTEiXFPPKHOybn4/cDd0FC3Zk3N++/bfJyqESCUIGS94tPxrLOqqurNN2s//ZS3WDp6Dk9RjEIRNnBg9KRJkePHs3q9oPUSwbtclgMHzn32mWH7dmdx8R/vHzKZfsyYpOef1/Tt2+YaMe90np04sWHdOnEqBggCCFlvJc2fn/jCC5d8Wv3mzSXTpjkrKzs6TeYpSpGSEjVhQvTkyepevUhdaSWJM5vN+/fXffGFYcsWR2mp5zulVarICRMSn31WlZ3d8szqRYvKnn76kofzACEMIestWqHI3rMnbMCAjp7gOYCtWbqU6qCfrOfKQPzTT8dOnRpE1wS6wN3YWL92bc3771vz8ii3m6coVqdLmj8/bsYMWi5v3LMnf9SoTg7nAS4HCFkfhN96a+aWLRcfe3IWy7llyypff72jA1ieplU5OXHTp0dOmCCPjQ1MtQHDOxzmn346t3x5w3/+46qtpWk6bMiQ+CefLJszx1FQIHZ1ACJDyPqCplM//jh2ypQ/HuG4hm++qXjuOevhwx1toh00KG7mTP3o0YxaHbBKReGqra3fuLH67bdt+flEx5sBSAhC1je0SpX89ttx06bxHGfKza1asMC4devFHUJ5ipJFRITfdlvMo4+GDxsmxQuvfnObzabduw1btxq3bbMXFKC3LFzmELK+Y5iEuXNN339v2rv34ls6TfEaFxc3fXrstGnyuDiRSgwKvNNp2revevFiw5YtFLH5yQCCHELWH3xH58I0HfmnP6W8956c8DTeUsJxhm3byubOtR07hm4GcBlCyAqDpyhVz56JL74YNWECLZeLXU7Q4Ww2w5dfVi1caDlwAFELlxWEbFd5xsLGz5oVO2OGLCJC7HKCGu9wGLZsaTqqPX0at8XgMoGQ9R9PUcq0tLiZM6Puu+8yv/zqE7fRWL9+fd3atabduzHVN4Q8hKy/WDbirrtSP/xQHh8vdilSZc3Lq3zttYb1632dSQdAQhCyPuObF9xOfuedyHHjLqu+WURwnOmnn0qmTrUeOSJ2KQBEsI+JXYG00DJZzMMPp69eHdavX+DnIQxBNK1ITo68917ObLYeP46eXhB6cCTrA1lsbPdly/S33454JcF6+HDZvHntDu4AkC6ErLfk3br1WLdOO3Cg2IWEMt7lMnz5Zflzz1lPnED3AwgNCNlL4ClKHh8fO2NG3NSpspgYscu5LHBW67l//KNqwQJHeTmiFqQOIdspmo64667Ujz5CF4LAcxsMVW+/Xf3ee7zJJHYtAP5DyHZMoej26qvxTz7p6wJfIYB3OjmHw7O0LWcy8S4X73RSPE+zLCWXMypV0z+tllEqGaWSksnIVWI9cqR01qzGXbswTgwkCiHbAYZJfued+Jkzxa6DPI5zG432khLn2bPmX3+15eU5ystd58+76+t/i1eXi+K4pozjeYqmKYZpilqGoeVyRquVxcTIExMVSUnK9HRFRoYyPV2ZmSmPihKwcxtnt5//7LOyuXM5o1GoNgECRtohK09JcZ07x1utwjZLh4WlLFgQO21ayPYicLudNTWmffuM27dbjhyxnz3rbmjgm1dI7Mo1UL75AgsbHq7MyFD37q3p21dzzTWqXr3ksbFd/0kad+wovP9+Z3U1rtKCtEg4ZBUZGVnffuusri6dOdOyf79QzcqTkrqvWBE+YoRQDQYPt8FgOXjQsH17465dtrw8d2Ojf4HFU1TkPfco0tLsZ8/az551lpRwZjPX3MWVvvBpNE0zWq3m2msjbr89bPBgdZ8+vi7625qjpKR01qyGTZvQxwskRKohqxs+PG3ZMmXzov+cw3Hu//6v6tVXnRUVXWpUJot97LHEefNCaaJCzmKxHjtm+v574/bt5h9/bDpi7fKaBTxFpS1d+tsKEW6322ZzGwzu+npXba2zutpZVuasrDT9+KPp++/pVpvQNM3q9cqePbWDB2uHDtX07atITqZ9vZ7rdjfu21f97ruGr79uWZwcIJhJMmTV/frl7N7NaDStH3TV11e9/nrNkiV+Xz3o9uabCXPnClSj+Gz5+TWLF9dv2uQUuiPUBSHbgYr58ytfeqmTFmiZTJWVpR89OvLuuzXXXuvr/JA1S5aUzZrFY4QYBD3pXXOklcrURYvaJGzTYWhkZPLChVk7d2o6XlC2QwwTP3t2/NNPC1aliHjedvJk6axZJ/r3r1myxNUqYfnmJR0DU4W90yUUm4pwuWx5eVULF5684YZTI0bUr1vnqq/3vv246dMzNm5UpKWhzwEEOamFLMt2W7hQO3hwR1/XXn999nffxTz2GOV1mtAKRbcFC5LffNPnU9dgw3Hm3NyCCRPyrrmm+r33uIaG1vHKRkfHzZjRc+PGwKxGbi8q8uZptKfsvXsL7r33+BVXFE+bZs7N9er4lKb1o0fn5OZGjh/v/e8aIPAkFbI0nfjss/GPP975sxi1OvXDD1M+/FAWE3PJwxxarU5dujRh9mypz6dlO3Eif+zYkzfe2LBuHW+1/pE6DKPMyUl64YXev/yS+sEHEePG6W+/nXQxnN3uLC/3aROaolyVleeWLj05ZMjJG25o2LiRd7kuuZU8MbHH6tUpH34YmHcOAD9I6ZpszJQpqR984P3FO3tRUdlf/9qwYUNHN6NpnS79s88i77lH0DIDjTObzy1fXvHSS+5z51oebDp01esj77kn+v77wwYOZFSqli8Zv/su/+abu3KDnqeolMWLYx99lJbL2z38d9XWHs3I4Bob/d4FxbJh118fN326fuxYVqu95NMthw4V3H23o7jY/z0CkCGNkKWVysR58xLmzPF58FXzdKW1S5bUrVlDXXhkpMzM7LF2raZvX4FrDSDriRPnP/+8btUqZ2lp68cjxo+PGDs2/NZb2x8N7HLljxlj3LatK7umlUpGq2U0GlarZfV6RqdjdTrP/6xez1ksNYsXd72jlWfiCN3NN0eMHasfNarz7l/2oqLyuXObDoFxNwyCiRRCViZL+8c/YiZP9rsBw7ffFowZ03r6fTYyMnvPHnWfPgKVGGiuhobyuXPPL1/e7poCMVOmpC1d2snmpr17T910k4S6QPEUpcrO7vbaa/oxYxilspNnGrZtK3700TbvOgAikkDIRk2enL58ud+b206dOnXTTa7KypZH2IiIHuvXS3e4gaOsrHDixMY9ezq63UNrNL327+/kLYR3Ok8MHGg9eJBckUTQtLpv34RnnokYO7aTqHUUFxc+9JDpu+8CWxxA+4L9xpc8JaXb66/7vbmrvr7wvvtaJyyj1/dYt06qCet2161de3LAgE4StilDLZbKV1/tZEYV0/ffu6qqCNVIEM9bDx0qnDDh1NChpo7H+CnS0jK/+ipu5syQHRUNkhLsr8Kwa66R6fX+bcs5HCVTp1oOHWp5hNZq0//5z/CbbxauwMBxnT9f9MgjhRMnOisqLtllqWHjRlt+/sWP805n1cKF+aNH+3r3P4jwvOWnn/JvuaXi5ZdddXXtPoXRaFLeeSf+qacCXhxAW8G+xpft1KnG775TXXGFIinJp+6QboOh+JFH6teubXlEmZ2d8e9/S/EYlrNaq99/v2jyZNPevd7O+Od2Uzx/QW8tjjNs2VL44IN1y5eHwFJavMPRuGvX+WXL7GfPyqKjm14ebY5baVo3fLgyI8Ny5IirVZdhgACTwDVZqvneV8xf/pL85ptsRIQ3T+cdjoLx4w1fftnyiDw1tdePP0pxUgLOZit84IH6det8jQlGp7siL0+RnEw1H/1VvvZaxQsvhOasrAyjGz48belSZUbGxV901deXTJlSv26dGJUBBP2R7G84znLwYMOWLZ5ZRS759LqVK6sXLPjjc5pO+/hjKS7P5aypKZo40bBpkx8HYpzDQXGcfuRIzmqtePHFytdeC9nJq3jecfZs/aZNql69VD16tDnjYdTqiHHjeJ435+aG7E8AgphEQraZq6ambs0ammXDBgygOx6g5aqvL5w40d1qIHz0X/6SMHcuLbXbINZjx87ccUfruax8QlOUNS8vrH//kscfr1uxIjSPYVvhDIb6tWttp0+HXXcde+F1fJplw4cNk6elGbdto7wYSAYgICmFbBOns3HHDrfJFD5iRLuhyTscxY88Yt63r+WR8JEj0z/7rPWQJ0kw7thRcOedjsLCLs2i7XDUrV7tOHNGwMKCGsdZjh6tW7WK1es1V155wTsxTWv+538Yjcb47bdiVgiXH6mFbDPz/v3Wkyd1Q4a0HXDZfOWxdsmSlgfUV13Vc+NGL6/kBg/Tvn1n7rjD7cusVB26zE6Q6eZxxoavvzbv3x8+fHibOQ3C+venaNr8/feX248FRCTJkG06lT5+vG7FCs5sVvXq5Yla3uGoeOmlqjfe8Pz98BSlu+mmjA0b5AkJYhfrG8PWrYX33+/uoHMSeMleUFC3fj2r0ymzs5nfR2PTDKO78cawQYMsv/7qqq4Wu0a4LEikd0HHZPHxKYsXR40fX/bss9ULF7Y8HjZ4cObXX0tsciaer37vvfI5c1omoFKkpjorKzEYvytUvXunLl2qGzKk9YNuk6n4scfqV68Wry64XEj1SLYFZzY3bNzoKC6u/eSTlnNANjo6c9u29qdHCWK1H39cNnt2S8Iqs7KyduxwGwzWX34RuzQJc9XW1q1ZQ/F8WP/+LXOGMQqFfswYy88/dz65OEDXSf5Itl1Jr72W+Le/iV2Fb87/85/Fjz7K2+2eT+UpKZnbtql79XJWVR3v08d9/rzYBUqe7pZb0leulMfGtjziKCk5OWCAU4ojjEE6JNaryRuqnJy4GTPErsI3hm++KZ42rSVhmfDwjA0b1L16NaVtQkL0pEliFxgKGr/9tnDCBHdDQ8sj5gMHXEajqEVB6Au1kGV0uu6ffy6tS7H2oqKiSZN4s9nzKU9RSc8/H9avX8sTYqZMoaXWBS04Gb/77tTw4da8PMrtPr9iRdHkybzFInZREOJC6nIBGxmZvnq1/rbbxC7EB5zFcmbcuMYdOzyf0gpF/Ny5Sc8/32YBiJqPPy594gl0pBcEo9ersrMtBw6gIxcEgORvfLWgFYr0VasiRo8WuxBfuN3F06c3/Pvfns9ohSL1739PmDXr4vFsYf36uSorm3IBuoz3LEEW6kPgIEiEyOUCnqLinngi4o47xC7EN+eWLTvfMh+5TJa8cGHMgw+2/1SaTnr5ZUV6eiDLA4CuC5GQVWZkJL74orSWhrb8+mvZnDktZ6wJzzzT+f06WWxs8sKFUl9VF+ByEyIhG//UU96saRo8OLO5ZOrU1ne6bSdPcu0t2NVa5J13Ro4fT746ABBMKISsMjNTcp2cqt5+25yb2/qRhvXrW49EaB/LdnvrLZnUBlkAXM4kH7Ly5OSM5iHqYhfig7q1a6veeOPix2s/+qjowQdbH95eTJmamr5iBXp0AUiFtLtw0Upl5pYtuuHDxS7EB46KiuO9e3MGQ0dP0A4dmrl1K6PRdNgEz5+49loLxtpCqPP0/6BZlpbLaZYlftOF4zgC/aZlgrcYSLHTpkkrYT2rNnSSsBRFNe7ZU/PBBwlz53b0BNNPP1mOHvVyd4xGQ8tkvKe7Ugf/t//VTr70u4v7QAXtncc2pdK+fJV0Mb7qvLyuNB4kvz6eomSRkdobbwwfPlyVnS1PSGAjImilspOp+gVhO3Hi1E03UW63sM1KOGSV2dmJL7wgdhW+4Z3O859/3vlzaIqqfOMN/ahR6quuaqcFl6vi+ee9HJXAU1T6ypW64cN5jmsKx+ZXz28f83zTB55/no+b++02peqFj/z2cfPjfEsjnhei55luN2e3c42NrnPnnFVVtlOnbCdPOoqL3QYDz3GB/7vlKYqWyVidTp6SokxJkSUmyuPiZNHRbGSkLCKC0elohYKWyVr+Ypu+F8+3YLW6GxpctbWu8+edNTWuykpnba2jpMRdV+e5JynI90KrVBlr18oiI/3bvH7jxupFizqqRBYTk756NaNU+tEy73IVPfywo6jIv8K6jm9eKyj85pujJ03SDhsmj4kJcH8hQhNPSzVkabk8ZdEiv1+pYmnYvNmal3fJFw5nMBSMH5+5Y4cyNbXNlwxff9343/96v0dGown8IGPe7XYbDPaCAvP+/Y27djXu3Omqryf950IrFOp+/XRDhmj791dmZcmTk1mttmXaLT9xnNticVZUOIqKrMeOmQ8etB4+bDt9uitD7zzrJ/k9RZzl1187a1yh0A4a1Nm1po7xTqd/Gwol/NZbUxYtUufktF14WOKkGbI0nfjSS/qRI8WuwzeOsrLS2bNp7wYa2fPz80eM6L5iRev1Hx0lJaVPPhn8g0FplpVFRcmiosKuuy5uxgxXXZ35hx+Mu3c37thhPXZM4MHBMlnYdddF3HlnxF13qTIyBP77ZBhWq2WzslRZWeG33tr0iMtlLy5u3L276d/OnY6ysiA5xZYwmg674Yb4mTP1d9zRMr16KJFkyGr69UucM0daQw8oiqqYN89ZXOz98+1nzuSPHNlz82bdsGFU81FV6VNPOXxpIUjIoqL0Y8box4yhOM5y6FDJk0+af/hBkJbV116b8u67usGDA3fsI5MpMzKUGRkxDz/MWa3169eX/fWvWGTBb7RanfzWW7FTp3b1nCOISe+wnKeo2Mceo6T2K7GePOnH0v+c0Xj2z3+2l5RQFNW4e3fD5s1kqgsUhtH065f5zTfxs2fTanUXm4p94onsXbt0Q4eKdXbJqNXRkyZlbtumyMgQpQCpY3S69FWr4mbMCOGElWTIKrp1k+Kop9rFi/3rHeKqri7/2984u7183rzQmIWL1emSFy7M2r5dmZ3t963wmEceSV20KBiG+Wmuvjpn717t8OGYb8Y3CkX6ihWRd94pdh3ESS9kk+bPl9zqs46ysro1a/zevH7NmuKHH24zQkzqtIMHZ+/ZE3H77X5sq+nXL/mtt4Ln9og8MbHnhg2/XbQF78RMnhxxGSSs9EI2bNCgqPvvF7sKn53/7DNXp+O4LsHtrlu1KvSm5pPHxfX44ouoiRN92yolpccXX7B6PbG6/MHq9T1WrlT16SN2IdLA6HQJzzwjdhUBIqWQlcXFpX36qX99AEXkKC+vWbJEYjfpAoUJC0tbtsz7nJUlJPTcvFkZlFM+ymJiMjZsUHTvLnYhwY5WKrsvW6bs0UPsQgJEMiHL03S3t95S9+4tdiE+q/34YyfuPneMUShSP/jAq3tHNJ36/vuavn0DUZZfVJmZqe+/z0ut30sg8RQVO3WqFG+r+E0yIasdMCDqz38WuwqfcXZ7/erV+JvrHBsZmfbRR/Sl+khqrrsuYty4QBXlJ91ttylxMNsxNiIi7qmnxK4ioCQSsiyb9PLLkrtQ4BkNbSssFLsKCQi/5ZZLXjSImzbtkkEsOkah0A4dKnYVwStqwoSLxzGGNmmErH7UqHCpTQTjYdq718shXpc7mk6cN4/p+HYWExYWPmpUYGvyU+uVhuECMlnMI4+IXUSgSSBkabk88cUXJbrsikmgoU2XA2WPHtH33dfJV/0e7x9gqt698b7aLnWfPpqrrxa7ikCTQMjqx46V6KGB22xu3LVL7CqkJH727I46QauvvDLg5fhJ2b07HTR9eIMHT1HRDzzQZq37y0GwvxQ8y9CKXYWfTLt3O6uqxK5CSpQ9eug7WHJYLp0LeWxUFNPFQcOhiFEo9GPGiF2FCII9ZDVXXx12/fViV+Gnhi+//KNfActG3X8/lo25JP0dd7R7rs1I50fHKBQSvbpFlDw5WZGSInYVIiAVsoxarRsxguriqQFNJzzzjERnP+Pt9sadO1s+VfXu3X3Zsp5ffYVlEDsXdt117eephDqf0jTpOfylSJWZKaF3SgGRClntsGFZ27Zlffut7pZbaKXSv/sA6quuku7oZuupU/azZz0f8xQVec89tFwePmJExqZN8sREsasLXoqkJIV0rgyA91RZWV1tguM4u53cP97pFOZbvRCRGcZ4ioqaOJFiWd2NN+qGDLHm5Z1btqxu7VpnRYX3RyM8RSXMmSPdtz7T3r28y+X5fhm5PPKeezyPa6+/Pjs3t2TaNOPWreJWGJxohULZo4f99GnBWuS4osces/naIM8nv/GGdvBgwcq4vPEUJU9L62IjptzcwsmTyZ3T8A6H4At8kQpZVc+eES23LxhG3adPyrvvJr3yiuXnn+vWrm3YtMnlxe0g/W23RUh37B3HNWza1PJa0N12m7pXr5YvKtPSem7ebNi6tWrBAnNubtDO/GL68cfSGTO8f02rsrPTV6zo+uRYql69jN9808VGWrMcPmw9eNCnTXiKctXVCVgDKJKSutgCZ7HYCwqkc9noN8KHLE9RMVOmXLyuFBsWphs2TDdsWMrbbxu//bb2008bd+7kbLZ2f2S0StXtrbckejWWoihnTY15/37PxzxNx8+Y0eZOCC2XR4wdq7/99vPLlpU89RRvNotUaWc4o9F88KAPJx8CvVsokpP5oFk5FYQSbBOnBYzw12QZtTryrrs6e0JYWMSdd2Z++WXvQ4cS5sxho6Mvfo5+9GiNdPpFXsx67Ji7sdHzsSI1VXvDDe0+jZbJYh57LH35clrUBeyCDaPTiV0CCC+0lz/ohPAhq73hBq9momMYVa9eyQsWpK9c2fb4RyaLnzVLSneTL9JyGEtRVMSYMUynE/hHjh+ftWOHvMsnUyFDumcw0Ak+JNb18IPwIRs1caJPV+Xsp0+3SVPdkCFayfaN9TDv3+/5pniajpww4ZLP1w4YIO/WLQCFScJl+9cY2vxbfikECHwAr0hP93XRHsPXX1/wuVye9Oqrku7LzZlMll9+8Xysysz05g3DbTY7mldLhKafhtEodgkgvK7Pqqzo1i3m0Uf9O8PlHA6uocFZVWUvLHTV1vI8H7AzZSFDlqeomEcf9WkBLmd1tWnfvtaPaAcO1A4aJGBVgWc7c8ZZWen5OHzkSG8Gazurqtz19eRLkwZndbWELxVBe2iKcnR5zk9V797dP/mki41wFovl4MH6TZsaNmywFxUF4JUm5OUCRi6PvPtunzYxfvMNd+GN9XC/VtYLKvb8fL65tx3f/J7hzSbOykrO4SBfmjQ4y8vFLgGEZy8qEruEJoxGox0yJOWdd3r/+mv35ctVOTnE9yhgW8rMTFVmpg8b8Pz51asvLIfRjxwpYEmisObled4eaYo699ln1ry8S/aEdZSWBqY2ScCVk5BkLygg0dXfb6xOFzN5cs5PP0VNmkR0R0KGrHbwYN9ueRUXmy+8VqC+8kr1FVcIWJIobHl5LR8bt28/0a9f4eTJ1iNHKI7raBNHYSFOkD04mw1vOSHJfvas89w5satoi9Xp0j75JPbxx8mtMC9Yu02nxkOG+LSJ4csv3a2uFXgu6Uq+Mx3H2X6fssBzMMtbrXX//OeJ668/+7//az5woN2jWjuWqPmdq7YW80OGJLfRaPFx3F1gMCpV6uLFSfPnE7rfLljIsjpd+M03e/98zmyu/fvfWx++qbKzo++/X6h6xMLZbM7i4osf5222+i++ODlwYP6YMQ3/+U/LUAUPW35+AGsMauaDBzmrVewqQHg0RdV++mkn53NiYtnEv/0t7dNPmbAwwdsWLGQjxo2TJyR4/3zjjh3W48dbP5Iwe3YIDLxz1dW5Gho6/rLLuGXLmXHjjuXkVL76qqdTC+dwONrL5aBA002nUV7+E2L8iHHbNlw5CVXGr782B+XBLNV8QyjmoYeSFy0SfBiUMOfmPEVF3nuvT5vUrVzZ+luRxcfrJTurYWvuhgbe6ez8t0RTlKuiovz552s+/DDmscdiHn7Yff58wCr0Xtj11/c+eND71xyjVnfxwhbvcpm//74rLUAw453O6nff7bFqVdCO54x58MH6NWtazwTddcKELE1RZXPn2k6ciPrznxXJyZf8S3NWVxv/+9/Wj0Teeac8JkaQYsTlfXfXpqitrq565ZW6zz8PzhNkNjxc07dvIPdoLyiwnToVyD1CgDVs2GD64YeOZvMQHS2XJ86f37h7t4AdIQS7XGA/caJs7tzjvXufuumm6nfesR4/3skMuMbt292t55Fj2eiHHhKqEnH5MT+eo6QkSC9UBZzhm2/QXzi08Q5H6axZ7qCcds5DN3CgqtXEpF0nZK8Fuvl2lmnPntLZs0/07Xviuuuq3n3XUVbWNkF4vm7VqtYPaPr21Vx7rYCViMhdXx+kJ0LBz+2uX7sWP72QZ/7554oXXgjaaZQpltWNGCFge0S6htHNF1+sR46UPf30sczM41dfXfjQQzVLlph/+omzWi2HDzd+913Lk3majn/6acn33PqdEzM9+8uwdav5p5/ErgKIoymq5r33apYsEbuQDoXfequA7wBko41u7rpkO3bMduxY3fLlPEUp09NZvZ6321ueo0hKiuh0/llpcRsMYpcgSZzNVv788+RGBPn6NxOsR1mhguPKnnqKVihiH3mE3CgAv4Vdey2jVLaOqa4I6PFju5NEhA0cyCiVgSyDKC6ILzYFs/oNG6xHjhBpmmHSPvqoTcdkb2iuuopIPdCMdzpLH3/cXlCQ9NJLjFotdjkXkEVFKVJT7QL1Xhf/JF03dKjYJQjpsp00sys4i6Vy/nxyF+nC+vcn1DJ0Be9yVb/1lnn//tQlS4JqPD0tlyszM4UKWZEP1Hma9nUwbpBDyPqhfuNGIZenBUkx7d59ctCgihdf9ONsgxxlRoZQTYkcssrU1ABMNRZIfFD2eA1mnN1e/c47YlcBYuKMxoqXX86/5RbPQvpil9NEHhsrVFNiXi7wzAjDqFQi1iA4dPP0iev8+eKpU62/LyQBly26edGmU8OGKXv21A0bph0yRDd0qDcjm0jVo1IJtWSymCHL6nTRkyeLWAAJvM0mdgmS4ayoODN2bHDOzATi4Dj76dP206drP/mEUSrV11wTPnRo2ODB6j595AkJgTwg82ZBEy+JGbLaIUMUIbd6YJCc7AQ/a17e2QkTbMeOiV0IBCOaoni73ZKba8nN5RcsYJRKeWKi5pprdEOHKjMyZHFxrF7PhIUxWi0tkzX9Y1maZYU87BXuNqxoIcs3L4UdtPNE+A8DZC+J4+rWrSt94glXTY3YpYAEeALXUVTkKCqq37CheW44mpbLm1JVLmdUKlqtZjQaNiyMCQ9Xdu+uvuIK9dVXa66+WtaV6VA4TqhsEi1kWZ0u/NZbxdo7OTxCtlOc1Vr5yitVb70VVCuRgFT8Fnw8zzscTYeaVit34drGpt8Hksiio/WjRiUvWCBPSvJjRwLeXBEtZCPGjg29awWUoGcZIYN3uRwlJZYDB4w7dxq++cZRXBxy5y8QRDyvLvf583X/+pf1+PGcffsYjcbXRjjh1qUXJ2R5mo555BFRdk0aHXxjBMXkclW88krdunX206d5t7tlfUmAwLD88ovlyBEvF41uzVlRIVQN4iSCIjlZ06+fKLsmLvSuMneFTBb9wANug4H6PWEBAolmGNavFWWctbVC1SBOyIaPGMFqtaLsmrhQmU5MKMqMjNQPPiC0RB1A55TZ2f5NDuvHxNAdESFkeYqKCImVZtolYPe6kBF5553dXnsNbz8QYLRa3e311/35k3Q6XcKtCCXC614WGRk2aFDg9xsYDEL2YgyT8Ne/Uixb/uyzFPoRByuappXZ2bRCIWyj9oKClptItFqtysriOY7iear5f09vnD8eafWgp/8J7+mF0vI4z//2zOYuBlTLrebW/1OULC5ON2JE3OOP+7d+ktvpFHDZPRFCVj96tIDjgoMNHSrTNnJWK6NUCta7m2ESnn5alZ1d8v/+X7tLpoP4ZLKe69cL3CZNnxk3zvDll57PVFlZvX/++Y8X1e+ZyLfuk8P/8SjVprtOy8fNH/CtAtcTvrwnjmmaCQtjuvBu4a6v50wmvzdvI9Ahy1NU1P33B3ingdRm3XZF9+72oiIp3vNp+M9/HMXFTUegQt3Ko+mIO+7Q/M//nBo61FFUJEybICwCfWPo1q8fzwrzF12gpzv9NPBctbXcpdac9l6gr8my4eGhPbkn3Wp4NU9R6StXpixaJE9Lk17vWbe7/LnnGr76SthWFSkpqR99hCvXEMycVVUCthbokFX27CmLjAzwTgOpTbdnVq+PnznzisOHpRi1vMtV+sQTzvJyYZvVjxyZvGgRchaClrO8XMCj6UCHbIDX8Q+81iFLU5RngUg2IqIlallJXY92FBXljx0rYMdsqvmcMW769OT33hP4HguAQByCHlgE+pqs+sorA7zHALvgSLZ5GouWzzxRG3H77aXPPGP4+mtKIjPPWg8dOjN2bM+vvpInJAjWaHPO0ixb+sQTPPmfg7O2lnc6fd6MphXx8UG4zB+Q5hD03mxAQ5anKD/Gt0mLTK//4xOWvfikWJmV1XP9entBQf3GjfX//rfl0KHg79VkOXjw1ODBqUuXht98s4DNxk6ZouzZs2TaNKEWU2ofx5254w4/5gVntNo+p051aSYnkCaroDNwBvRdWh4bG1TLpZHARkW1fEyzbPtnxAyjzMxMmDOnV25u+r/+FdD6/GUvKDgzerRx505hmw0fMSJ73z5lVpawzbbBu1y8w+HHP6JVQXByNTTYTp4UsMGAhqymXz/Gr3HEEsLq9S13t2iGucTtHYZRdu8ekLoEwDscJdOnu86dE7ZZeVxc6tKlIdO/GKTOcvCgW7gpuAIasjxF6UaMCNjuxCKLiPjjE4ahQ2ssqf3UqYK77xZwxKFH+E03pX3yCR1aq72BRDVs3ixsR93AhSzNMLrQWv27XUzra7LNC2OIWQ0Bpr17C+65R8DpMzyiH3igKWfVamGbBfCJ22hs2LRJ2DYDF7Ly+Hj/psORFlana5m+gFEoQvLedOPu3QV/+pOrvl7YZqMnTer+6afIWRBRw6ZNztJSYdsMXATohg9ndbqA7U4snvXdPB835UUohixNUY07d5668UZzbq6wLUdNnJj17beqPn2kNWoDQoPtzJny554TvNkARUBoT2/YGqtWy39fVodRqZgQncObpijb0aOnbrnFvH+/sC1rb7ghe88e9VVXCdssQOdcDQ1n773XWVYmeMsBCllGpdJcc01g9iUylpXFx3s+5Gw2y/HjnN0udk2k8GZz8bRpwt6K9UyG2X3pUjrUO6JA8HAbjYUPPOBHZ2pvBChkFenpiuTkwOxLdMrUVM8HzpKSE/3751155dkJE2oWLzbl5rrq60NspUXLL78UTpzobmwUttmwgQPTV6xAzkIAOIqL80eONP4+H6PgAnTvO+zaay+fgerKjIw/PnE67fn59vz8ui++oGlaFhmpGTBAf9ttmv79VTk5FwwPkyaaohq++qpw0qT0f/1L2CWFIu++m2KYwkmTeOFm9gRozd3QYNi6tXzePMfZs+T2EoiQ5SlK1auX9ejRAOwrGNBqNd/uFJk876qrM27dati6lW6eV1ienEx6TjJ7YaF/P3mH1/dYaYoybN58esSI5AULZNHRfuyrI6rm9cHK58511dTYCwv9HG/G85xfB9o8x9lOnWKrq33e0G7/bT7/jpv1e0yHs7Kys107ndbjx5ng6XFM062vJnFWq/XYsQDfDeY5jnK7eaeTs1rdJpOrutpRVuYoLradOGE7edLV0ED6tgl9gPAOPELqDNkLwXO3qys/eV+/C0K/ZbrLjfv96/B7p53vsYs/KKKNC65NtaKXF/i/zQBdLgie0LncBPInT3RforyECO009H5Q3gvy8kgIwV6cAADBAyELAEAQQhYAgCCELAAAQQhZAACCELIAAAQhZAEACELIAgAQhJAFACAIIQsAQBBCFgCAIIQsAABBCFkAAIIQsgAABCFkAQAIQsgCABCEkAUAIAghCwBAEEIWAIAghCwAAEEIWQAAghCyAAAEIWQBAAhCyAIAEISQBQAgCCELAEAQQhYAgCCELAAAQQhZAACCELIAAAQhZAEACELIAgAQhJAFACAIIQsAQBBCFgCAIIQsAABBCFkAAIIQsgAABCFkAQAIQsgCABCEkAUAIAghCwBAEEIWAIAghCwAAEEIWQAAghCyAAAEIWQBAAhCyAIAEISQBQAgCCELAEAQQhYAgCCELAAAQQhZAACCELIAAAQhZAEACELIAgAQhJAFACAIIQsAQBBCFgCAIIQsAABBCFkAAIIQsgAABCFkAQAIQsgCABCEkAUAIAghCwBAEEIWAIAghCwAAEEIWQAAghCyAAAEIWQBAAhCyAIAEISQBQAgCCELAEAQQhYAgCCELAAAQQhZAACCELIAAAQhZAEACELIAgAQhJAFACAIIQsAQBBCFgCAIIQsAABBCFkAAIIQsgAABCFkAQAIQsgCABCEkAUAIAghCwBAEEIWAIAghCwAAEEIWQAAghCyAAAEIWQBAAhCyAIAEISQBQAgCCELAEAQQhYAgCCELAAAQQhZAACCELIAAAQhZAEACELIAgAQhJAFACAIIQsAQBBCFgCAIIQsAABBCFkAAIIQsgAABCFkAQAIQsgCABCEkAUAIAghCwBAEEIWAIAghCwAAEEIWQAAghCyAAAEIWQBAAhCyAIAEISQBQAgCCELAEAQQhYAgCCELAAAQQhZAACCELIAAAQhZAEACELIAgAQhJAFACAIIQsAQBBCFgCAIIQsAABBCFkAAIIQsgAABCFkAQAIQsgCABCEkAUAIAghCwBAEEIWAIAghCwAAEEIWQAAghCyAAAEIWQBAAhCyAIAEISQBQAgCCELAEAQQhYAgCCELAAAQQhZAACCELIAAAQhZAEACELIAgAQhJAFACAIIQsAQBBCFgCAIIQsAABBCFkAAIIQsgAABCFkAQAIQsgCABCEkAUAIAghCwBAEEIWAIAghCwAAEEIWQAAghCyAAAEIWQBAAhCyAIAEISQBQAgCCELAEAQQhYAgCCELAAAQQhZAACCELIAAAQhZAEACELIAgAQhJAFACAIIQsAQBBCFgCAoP8fAAD//7soYcVyCXa/AAAAAElFTkSuQmCC;" vertex="1" parent="1">
          <mxGeometry x="580" y="145" width="130" height="130" as="geometry" />
        </mxCell>
        <mxCell id="wAkoyKm10XSTB36XZKbG-2" value="User" style="shape=umlActor;verticalLabelPosition=bottom;verticalAlign=top;html=1;outlineConnect=0;" vertex="1" parent="1">
          <mxGeometry x="170" y="180" width="30" height="60" as="geometry" />
        </mxCell>
        <mxCell id="wAkoyKm10XSTB36XZKbG-14" value="ブラウザ" style="rounded=1;whiteSpace=wrap;html=1;fillColor=#dae8fc;strokeColor=#6c8ebf;" vertex="1" parent="1">
          <mxGeometry x="310" y="170" width="150" height="80" as="geometry" />
        </mxCell>
        <mxCell id="wAkoyKm10XSTB36XZKbG-19" value="Request&lt;br&gt;" style="endArrow=classic;html=1;rounded=0;edgeStyle=orthogonalEdgeStyle;" edge="1" parent="1">
          <mxGeometry relative="1" as="geometry">
            <mxPoint x="220" y="200" as="sourcePoint" />
            <mxPoint x="290" y="200" as="targetPoint" />
          </mxGeometry>
        </mxCell>
        <mxCell id="wAkoyKm10XSTB36XZKbG-21" value="Response" style="endArrow=classic;html=1;rounded=0;edgeStyle=orthogonalEdgeStyle;" edge="1" parent="1">
          <mxGeometry relative="1" as="geometry">
            <mxPoint x="290" y="230" as="sourcePoint" />
            <mxPoint x="220" y="230" as="targetPoint" />
            <Array as="points">
              <mxPoint x="280" y="230" />
              <mxPoint x="280" y="230" />
            </Array>
          </mxGeometry>
        </mxCell>
        <mxCell id="wAkoyKm10XSTB36XZKbG-24" value="" style="shape=doubleArrow;whiteSpace=wrap;html=1;fillColor=#ffe6cc;strokeColor=#d79b00;" vertex="1" parent="1">
          <mxGeometry x="470" y="200" width="100" height="20" as="geometry" />
        </mxCell>
      </root>
    </mxGraphModel>
  </diagram>
</mxfile>
